<?xml version="1.0" encoding="UTF-8" standalone="no"?>
<svg
   width="20mm"
   height="20mm"
   viewBox="0 0 20 20"
   version="1.1"
   id="svg1"
   sodipodi:docname="bg.svg"
   inkscape:version="1.4.3 (0d15f75042, 2025-12-25)"
   xmlns:inkscape="http://www.inkscape.org/namespaces/inkscape"
   xmlns:sodipodi="http://sodipodi.sourceforge.net/DTD/sodipodi-0.dtd"
   xmlns="http://www.w3.org/2000/svg"
   xmlns:svg="http://www.w3.org/2000/svg">
  <defs
     id="defs1" />
  <sodipodi:namedview
     id="namedview1"
     pagecolor="#ffffff"
     bordercolor="#000000"
     borderopacity="0.25"
     inkscape:showpageshadow="2"
     inkscape:pageopacity="0.0"
     inkscape:pagecheckerboard="0"
     inkscape:deskcolor="#d1d1d1"
     inkscape:document-units="mm"
     inkscape:zoom="6.2689808"
     inkscape:cx="57.266087"
     inkscape:cy="36.768337"
     inkscape:window-width="1864"
     inkscape:window-height="1163"
     inkscape:window-x="0"
     inkscape:window-y="0"
     inkscape:window-maximized="1"
     inkscape:current-layer="svg1" />
  <g
     id="layer1">
    <rect
       style="fill:#f9f9f9;stroke-width:0.499999"
       id="rect1"
       width="20"
       height="20"
       x="0"
       y="0" />
    <rect
       style="fill:#ffe839;fill-opacity:0.310795;stroke-width:0.499999"
       id="rect2-3"
       width="5.9514332"
       height="20"
       x="8.196312"
       y="-20"
       transform="rotate(90)" />
    <rect
       style="fill:#ffe839;fill-opacity:0.310795;stroke-width:0.5"
       id="rect2-3-8"
       width="1.3225406"
       height="20"
       x="6.0613885"
       y="-20"
       transform="rotate(90)" />
    <rect
       style="fill:#ffe839;fill-opacity:0.310795;stroke-width:0.5"
       id="rect2-3-8-5"
       width="1.3225406"
       height="20"
       x="17.346745"
       y="-20"
       transform="rotate(90)" />
    <path
       id="rect3"
       style="fill:#ffffff;fill-opacity:1;stroke:none;stroke-width:0.5;stroke-linejoin:round;stroke-dasharray:none;stroke-opacity:1"
       d="m 9.4082688,8.9520555 -1.4924654,1.5217215 -7.631e-4,7.68e-4 a 1.0558778,1.0765758 0 0 0 0,1.522517 1.0558778,1.0765758 0 0 0 1.3420868,0.127767 1.0558778,1.0765758 0 0 1 3.113e-4,0.02601 1.0558778,1.0765758 0 0 1 -1.0558906,1.076589 h 2.4134442 a 1.0558778,1.0765758 0 0 1 -1.05586,-1.076589 1.0558778,1.0765758 0 0 1 3.167e-4,-0.02601 1.0558778,1.0765758 0 0 0 1.3420863,-0.127798 1.0558778,1.0765758 0 0 0 -3e-5,-1.522517 z" />
    <rect
       style="fill:#ff4f4f;fill-opacity:0.192416;stroke-width:0.499999"
       id="rect2"
       width="5.9166303"
       height="20"
       x="6.4661283"
       y="-1.8301188e-07" />
    <rect
       style="fill:#ff4f4f;fill-opacity:0.192416;stroke-width:0.499999"
       id="rect2-6"
       width="1.4665151"
       height="20"
       x="14.08337"
       y="3.6602376e-07" />
    <rect
       style="fill:#ff4f4f;fill-opacity:0.192416;stroke-width:0.499999"
       id="rect2-6-5"
       width="1.4665151"
       height="20"
       x="1.1842654"
       y="0" />
  </g>
  <rect
     style="fill:#86a6bf;stroke-width:0.499999;fill-opacity:0.40637627"
     id="rect4"
     width="20"
     height="20"
     x="0"
     y="0" />
</svg>
