<?xml version="1.0" encoding="UTF-8" standalone="no"?>
<!-- Created with Inkscape (http://www.inkscape.org/) -->

<svg
   width="100mm"
   height="100mm"
   viewBox="0 0 100 100"
   version="1.1"
   id="svg1"
   inkscape:version="1.4.3 (0d15f75042, 2025-12-25)"
   sodipodi:docname="logo.svg"
   inkscape:export-filename="logo.png"
   inkscape:export-xdpi="203.2"
   inkscape:export-ydpi="203.2"
   xmlns:inkscape="http://www.inkscape.org/namespaces/inkscape"
   xmlns:sodipodi="http://sodipodi.sourceforge.net/DTD/sodipodi-0.dtd"
   xmlns="http://www.w3.org/2000/svg"
   xmlns:svg="http://www.w3.org/2000/svg">
  <sodipodi:namedview
     id="namedview1"
     pagecolor="#ffffff"
     bordercolor="#000000"
     borderopacity="0.25"
     inkscape:showpageshadow="2"
     inkscape:pageopacity="0.0"
     inkscape:pagecheckerboard="0"
     inkscape:deskcolor="#d1d1d1"
     inkscape:document-units="mm"
     showgrid="false"
     inkscape:zoom="1.7263173"
     inkscape:cx="202.16446"
     inkscape:cy="214.03945"
     inkscape:window-width="1864"
     inkscape:window-height="1163"
     inkscape:window-x="0"
     inkscape:window-y="0"
     inkscape:window-maximized="1"
     inkscape:current-layer="layer1"
     showguides="true">
    <inkscape:grid
       id="grid1"
       units="mm"
       originx="0"
       originy="0"
       spacingx="10"
       spacingy="10"
       empcolor="#0099e5"
       empopacity="0.30196078"
       color="#0099e5"
       opacity="0.14901961"
       empspacing="5"
       enabled="true"
       visible="false" />
  </sodipodi:namedview>
  <defs
     id="defs1" />
  <g
     inkscape:label="Layer 1"
     inkscape:groupmode="layer"
     id="layer1">
    <rect
       style="fill:#000000;fill-opacity:1;stroke:none;stroke-width:1;stroke-linejoin:miter;stroke-dasharray:none;stroke-opacity:1"
       id="rect8"
       width="67.87429"
       height="22.082184"
       x="16.43322"
       y="69.388191"
       ry="3.2184362" />
    <circle
       style="fill:#000000;fill-opacity:1;stroke:none;stroke-width:0.999999;stroke-linejoin:miter;stroke-dasharray:none;stroke-opacity:1"
       id="path9"
       cx="49.649223"
       cy="49.477631"
       r="36.714138" />
    <path
       id="rect3"
       style="fill:#ba2b2b;fill-opacity:1;stroke:#ffcf42;stroke-width:0.5;stroke-linejoin:round;stroke-dasharray:none;stroke-opacity:1"
       d="M 49.999942,7.2545716 28.60704,28.647471 l -0.01117,0.01116 a 15.134882,15.134882 0 0 0 0,21.404075 15.134882,15.134882 0 0 0 19.237387,1.796191 15.134882,15.134882 0 0 1 0.0045,0.365581 15.134882,15.134882 0 0 1 -15.135074,15.13507 h 34.594132 a 15.134882,15.134882 0 0 1 -15.134627,-15.13507 15.134882,15.134882 0 0 1 0.0045,-0.365581 15.134882,15.134882 0 0 0 19.237382,-1.79664 15.134882,15.134882 0 0 0 -4.42e-4,-21.404067 z" />
    <circle
       style="fill:none;stroke:#ffcf42;stroke-width:0.5;stroke-dasharray:none;stroke-opacity:1"
       id="path1"
       cx="-15.090682"
       cy="-70.754875"
       r="15.134882"
       transform="rotate(135)" />
    <circle
       style="fill:none;stroke:#ffcf42;stroke-width:0.5;stroke-dasharray:none;stroke-opacity:1"
       id="path1-8"
       cx="0.04419899"
       cy="-55.619984"
       r="15.134882"
       transform="rotate(135)" />
    <circle
       style="fill:none;fill-opacity:1;stroke:#ffcf42;stroke-width:0.5;stroke-dasharray:none;stroke-opacity:1"
       id="path1-8-2"
       cx="67.29686"
       cy="52.224457"
       r="15.134882" />
    <circle
       style="fill:none;fill-opacity:1;stroke:#ffcf42;stroke-width:0.5;stroke-dasharray:none;stroke-opacity:1"
       id="path1-8-2-3"
       cx="32.702847"
       cy="52.224457"
       r="15.134882" />
    <g
       id="g8"
       style="fill:#ffcf42;fill-opacity:1;stroke:#000000;stroke-linejoin:miter;stroke-opacity:1;stroke-width:0.5;stroke-dasharray:none"
       transform="translate(0,1.0583333)">
      <path
         id="rect2"
         style="fill:#ffcf42;fill-opacity:1;stroke:#000000;stroke-width:0.5;stroke-linejoin:miter;stroke-dasharray:none;stroke-opacity:1"
         d="M 15.406292,74.466773 V 91.080229 H 28.446323 V 84.333871 H 22.864751 V 74.466773 Z"
         sodipodi:nodetypes="ccccccc" />
      <path
         style="fill:#ffcf42;fill-opacity:1;stroke:#000000;stroke-width:0.5;stroke-linejoin:miter;stroke-dasharray:none;stroke-opacity:1"
         d="m 33.048199,75.699528 v 3.500747 h 2.341044 v 5.04483 h -2.341044 v 6.83512 h 11.48336 v -6.83512 h -2.342303 v -5.04483 h 2.342303 v -3.500747 h -5.729088 -0.01385 z"
         id="path7"
         sodipodi:nodetypes="ccccccccccccccc" />
      <path
         id="rect7-9"
         style="fill:#ffcf42;fill-opacity:1;stroke:#000000;stroke-width:0.5;stroke-linejoin:miter;stroke-dasharray:none;stroke-opacity:1"
         d="m 69.67956,74.516469 v 16.613457 h 15.65488 v -6.019272 h -5.061194 v -2.314587 h 5.061194 v -3.24683 h -5.061194 v -2.315104 h 5.061194 v -2.717664 z"
         sodipodi:nodetypes="ccccccccccccc" />
      <path
         id="rect5"
         style="fill:#ffcf42;fill-opacity:1;stroke:#000000;stroke-width:0.5;stroke-linejoin:miter;stroke-dasharray:none;stroke-opacity:1"
         d="m 49.204699,73.458136 v 17.671793 h 5.69836 v -2.315107 h 5.34696 v 2.315107 h 5.69836 c 0,0 0.486363,-6.903304 -1.021347,-8.571792 -1.610295,-1.782013 -2.956804,-2.064783 -2.956804,-2.064783 l 4.122579,-5.976885 h -6.317526 l -2.974663,5.947607 -2.014865,0.01689 -0.0035,-7.022831 z"
         sodipodi:nodetypes="cccccccsccccccc" />
      <circle
         style="fill:#ffcf42;fill-opacity:1;stroke:#000000;stroke-width:0.5;stroke-linejoin:miter;stroke-dasharray:none;stroke-opacity:1"
         id="path8"
         cx="35.389244"
         cy="71.791946"
         r="2.7943003" />
      <circle
         style="fill:#ffcf42;fill-opacity:1;stroke:#000000;stroke-width:0.5;stroke-linejoin:miter;stroke-dasharray:none;stroke-opacity:1"
         id="path8-6"
         cx="42.119633"
         cy="71.791946"
         r="2.7943003" />
    </g>
  </g>
</svg>
