<?xml version="1.0" encoding="UTF-8" standalone="no"?>
<!-- Created with Inkscape (http://www.inkscape.org/) -->

<svg
   width="100mm"
   height="100mm"
   viewBox="0 0 100 100"
   version="1.1"
   id="svg1"
   inkscape:version="1.4.3 (0d15f75042, 2025-12-25)"
   sodipodi:docname="logo-icon.svg"
   xmlns:inkscape="http://www.inkscape.org/namespaces/inkscape"
   xmlns:sodipodi="http://sodipodi.sourceforge.net/DTD/sodipodi-0.dtd"
   xmlns="http://www.w3.org/2000/svg"
   xmlns:svg="http://www.w3.org/2000/svg">
  <sodipodi:namedview
     id="namedview1"
     pagecolor="#d98383"
     bordercolor="#000000"
     borderopacity="0.25"
     inkscape:showpageshadow="2"
     inkscape:pageopacity="0.0"
     inkscape:pagecheckerboard="0"
     inkscape:deskcolor="#d1d1d1"
     inkscape:document-units="mm"
     showgrid="false"
     inkscape:zoom="1.3509661"
     inkscape:cx="196.89613"
     inkscape:cy="207.62919"
     inkscape:window-width="1864"
     inkscape:window-height="1163"
     inkscape:window-x="0"
     inkscape:window-y="0"
     inkscape:window-maximized="1"
     inkscape:current-layer="layer1">
    <inkscape:grid
       id="grid1"
       units="mm"
       originx="0"
       originy="0"
       spacingx="10"
       spacingy="10"
       empcolor="#0099e5"
       empopacity="0.30196078"
       color="#0099e5"
       opacity="0.14901961"
       empspacing="5"
       enabled="true"
       visible="false" />
  </sodipodi:namedview>
  <defs
     id="defs1" />
  <g
     inkscape:label="Layer 1"
     inkscape:groupmode="layer"
     id="layer1">
    <path
       id="rect3"
       style="fill:#80c3e4;fill-opacity:1;stroke:#000000;stroke-width:1.33333;stroke-linejoin:round;stroke-dasharray:none;stroke-opacity:1"
       d="m 49.999985,3.0742116 -32.981179,32.9811744 -0.01723,0.0172 a 23.333265,23.333265 0 0 0 0,32.998405 23.333265,23.333265 0 0 0 29.658047,2.769165 23.333265,23.333265 0 0 1 0.007,0.563613 23.333265,23.333265 0 0 1 -23.333534,23.333556 h 53.333356 a 23.333265,23.333265 0 0 1 -23.332873,-23.333558 23.333265,23.333265 0 0 1 0.007,-0.563613 23.333265,23.333265 0 0 0 29.658039,-2.769857 23.333265,23.333265 0 0 0 -6.81e-4,-32.998393 z" />
    <circle
       style="fill:none;stroke:#000000;stroke-width:0.666665;stroke-dasharray:none;stroke-opacity:1"
       id="path1"
       cx="-9.8483047"
       cy="-84.19574"
       r="23.333265"
       transform="rotate(135)" />
    <circle
       style="fill:none;stroke:#000000;stroke-width:0.666665;stroke-dasharray:none;stroke-opacity:1"
       id="path1-8"
       cx="13.484962"
       cy="-60.862465"
       r="23.333265"
       transform="rotate(135)" />
    <circle
       style="fill:none;fill-opacity:1;stroke:#000000;stroke-width:0.666665;stroke-dasharray:none;stroke-opacity:1"
       id="path1-8-2"
       cx="76.666428"
       cy="72.40374"
       r="23.333265" />
    <circle
       style="fill:none;fill-opacity:1;stroke:#000000;stroke-width:0.666665;stroke-dasharray:none;stroke-opacity:1"
       id="path1-8-2-3"
       cx="23.333265"
       cy="72.40374"
       r="23.333265" />
  </g>
</svg>
